<?xml version="1.0" encoding="UTF-8"?>
<svg version="1.1" xmlns="http://www.w3.org/2000/svg" width="512" height="512">
<path d="M0 0 C1.25387591 -0.00453111 2.50775182 -0.00906223 3.79962397 -0.01373065 C7.24561132 -0.02585369 10.69150082 -0.02571296 14.13750458 -0.02334189 C17.8677873 -0.02293098 21.59803977 -0.03399901 25.32830811 -0.04345703 C32.62461051 -0.06001017 39.92088059 -0.06556403 47.21720022 -0.06668179 C53.15496206 -0.06763516 59.09271331 -0.07175986 65.0304718 -0.07808304 C81.90222488 -0.09568152 98.77395261 -0.10492433 115.64571494 -0.10342209 C117.00764793 -0.10330222 117.00764793 -0.10330222 118.39709473 -0.10317993 C119.76071041 -0.10305729 119.76071041 -0.10305729 121.15187389 -0.10293217 C135.86839101 -0.10212012 150.58480559 -0.12124098 165.30129308 -0.14945666 C180.44846304 -0.17826651 195.59558313 -0.19199245 210.74278116 -0.19026911 C219.23206321 -0.1896079 227.72123779 -0.19498114 236.210495 -0.21662521 C243.44140552 -0.23494422 250.67215991 -0.23909742 257.90308374 -0.22560637 C261.58363846 -0.21912966 265.26389459 -0.21876405 268.94441986 -0.23631287 C288.09177216 -0.32195385 306.6617972 0.38786225 324.74865723 7.39242554 C325.51758301 7.68391479 326.28650879 7.97540405 327.07873535 8.27572632 C349.01713922 17.01046119 367.39920126 33.54551592 379.99865723 53.26742554 C380.62771973 54.23551147 381.25678223 55.20359741 381.90490723 56.20101929 C395.96099661 78.91886551 397.61612109 103.46754947 397.50689685 129.54786098 C397.49563323 133.30317312 397.50777952 137.05842757 397.51673889 140.81373596 C397.53056905 148.14141236 397.52319218 155.46891476 397.50806331 162.79658266 C397.49108137 171.35192375 397.4944286 179.90722296 397.49815739 188.46257571 C397.50401696 203.73797394 397.48993807 219.01328937 397.46520996 234.28866577 C397.44128218 249.07157492 397.43421309 263.85437355 397.44470215 278.63729858 C397.45613942 294.78525347 397.45800778 310.93315743 397.44360405 327.08111173 C397.44207841 328.80636139 397.44055805 330.53161106 397.43904305 332.25686073 C397.43828523 333.10544306 397.43752742 333.95402538 397.43674664 334.82832232 C397.43202647 340.77575056 397.43383896 346.72315586 397.43810844 352.67058372 C397.44306066 359.92736547 397.43693744 367.18404326 397.41721415 374.44080134 C397.40741677 378.13515729 397.40215416 381.82935572 397.41010666 385.52371979 C397.44425195 403.24712337 397.24404231 420.3849577 391.37365723 437.32992554 C391.12204834 438.06614136 390.87043945 438.80235718 390.61120605 439.56088257 C385.991622 452.41645429 378.57600363 463.71543824 369.99865723 474.26742554 C369.36443848 475.06664429 368.73021973 475.86586304 368.07678223 476.68930054 C351.09021105 497.04510898 323.81503295 508.93700284 297.99865723 512.26742554 C293.59218143 512.52989433 289.20069573 512.54236201 284.78730774 512.52812195 C283.51089737 512.5319475 282.234487 512.53577304 280.91939753 512.53971452 C277.41060598 512.54991728 273.90191749 512.54783261 270.39311779 512.54353392 C266.59541108 512.54105247 262.79772828 512.55009846 259.00003052 512.55757141 C251.57238173 512.57028208 244.14476916 512.57211658 236.71711133 512.56977115 C230.67444249 512.56798344 224.63178458 512.56974732 218.58911705 512.57399559 C217.2958862 512.57488837 217.2958862 512.57488837 215.97652948 512.57579919 C214.22466431 512.57701103 212.47279915 512.57822517 210.720934 512.57944157 C194.31285558 512.59030352 177.90479775 512.58816124 161.49671819 512.58205672 C146.51629812 512.57689108 131.53594315 512.58813611 116.55553595 512.60715494 C101.14282868 512.62657128 85.73015215 512.63478255 70.31743258 512.63103169 C61.67680289 512.6291251 53.03622856 512.63155391 44.3956089 512.64574623 C37.03800245 512.65770965 29.68048542 512.65900983 22.32287762 512.64695606 C18.57591203 512.64110142 14.82910958 512.63987204 11.08215523 512.65195847 C-6.8222706 512.70580308 -24.07887826 512.53819454 -41.18884277 506.57992554 C-41.93021484 506.32573853 -42.67158691 506.07155151 -43.4354248 505.80966187 C-55.58074126 501.45117612 -66.00461988 494.35669573 -76.00134277 486.26742554 C-76.86501465 485.57004272 -77.72868652 484.87265991 -78.61853027 484.15414429 C-99.41457253 466.435398 -112.64238552 439.35144584 -115.00134277 412.26742554 C-115.14825805 408.05591618 -115.149176 403.84698314 -115.14851379 399.63320923 C-115.15219048 398.37050036 -115.15586717 397.1077915 -115.15965527 395.80681872 C-115.16961513 392.31761471 -115.17338231 388.8284279 -115.17604458 385.3392117 C-115.17996569 381.5693294 -115.18954277 377.79946049 -115.19825745 374.02958679 C-115.21797242 364.9322656 -115.22808236 355.83494337 -115.23698524 346.73760617 C-115.24137682 342.44459469 -115.24674141 338.15158443 -115.25197411 333.85857391 C-115.26898243 319.57189312 -115.28347369 305.28521307 -115.29072285 290.99852371 C-115.29263248 287.29535165 -115.29455285 283.5921796 -115.29650879 279.88900757 C-115.2972344 278.50854111 -115.2972344 278.50854111 -115.29797467 277.10018644 C-115.30626419 262.21205753 -115.33158465 247.32400925 -115.36408947 232.4359155 C-115.39724983 217.12163601 -115.41517974 201.80739736 -115.41836709 186.49308181 C-115.42052404 177.90648249 -115.42915233 169.32000071 -115.45482826 160.73343658 C-115.47665843 153.4164328 -115.48452577 146.0995751 -115.47486148 138.78254244 C-115.47035193 135.0574547 -115.47200447 131.33266759 -115.49162292 127.60762215 C-115.67679973 90.39300409 -108.22207696 59.58981612 -81.68884277 32.51742554 C-59.84777469 10.89515102 -30.57810868 -0.08236681 0 0 Z " fill="#23B0FA" transform="translate(115.0013427734375,-0.267425537109375)"/>
<path d="M0 0 C14.81785423 11.88749117 26.40498536 26.72708514 32 45 C33.97806641 44.93039063 33.97806641 44.93039063 35.99609375 44.859375 C60.47413542 44.26123167 83.49817305 50.46571559 101.6953125 67.76171875 C102.83613281 68.86966797 102.83613281 68.86966797 104 70 C104.69867188 70.62519531 105.39734375 71.25039062 106.1171875 71.89453125 C117.01384145 81.96439628 127.40258485 99.44997373 128.1875 114.625 C128.125625 115.40875 128.06375 116.1925 128 117 C128.55945313 116.96519531 129.11890625 116.93039062 129.6953125 116.89453125 C150.06328997 116.20686642 168.96980089 124.94035515 183.64941406 138.60668945 C199.10714862 153.57726811 207.65406555 172.39708082 208.52148438 193.76318359 C208.83741791 214.362802 201.87898807 233.66006581 188 249 C187.33484375 249.75796875 186.6696875 250.5159375 185.984375 251.296875 C176.75131301 261.2138675 164.96926141 268.16658293 152 272 C150.75673982 272.36982718 150.75673982 272.36982718 149.48836327 272.74712563 C139.4569227 275.41106485 129.81049791 275.42484253 119.49462891 275.38818359 C117.55647996 275.39225649 115.61833333 275.39760237 113.68019104 275.40411377 C108.45072297 275.41770963 103.22143384 275.41252034 97.99196291 275.40297651 C92.49637683 275.39533747 87.00080524 275.40243745 81.50521851 275.40713501 C72.27721429 275.41258117 63.04928229 275.40543187 53.82128906 275.39111328 C43.18476015 275.3747987 32.54840389 275.38007128 21.91187918 275.3965925 C12.74796158 275.41025148 3.58409565 275.41210524 -5.57982886 275.40427649 C-11.03905094 275.39962291 -16.49819216 275.3989107 -21.95740891 275.40888596 C-27.09412436 275.41761746 -32.23061956 275.41142189 -37.36731148 275.39420319 C-39.24126001 275.39027071 -41.1152274 275.39131605 -42.98916817 275.39799118 C-56.72597842 275.44237277 -70.78908478 275.11630247 -83.1875 268.4375 C-83.84693604 268.09235352 -84.50637207 267.74720703 -85.18579102 267.39160156 C-100.02544028 259.30998209 -111.13171927 246.90045183 -117 231 C-117.391875 229.97777344 -117.78375 228.95554687 -118.1875 227.90234375 C-124.03379345 210.54616006 -122.01390078 192.70993566 -114 176.5 C-111.95581477 172.44034002 -109.88706945 168.53666007 -107 165 C-107.89460938 164.38253906 -108.78921875 163.76507813 -109.7109375 163.12890625 C-135.3075099 145.27950627 -151.98188752 122.93415949 -157.5859375 91.73828125 C-160.73642533 63.29472605 -153.68271402 37.59650205 -135.77734375 15.22265625 C-101.06086463 -24.51454825 -42.56960161 -32.71480392 0 0 Z " fill="#FEFEFE" transform="translate(264,153)"/>
<path d="M0 0 C3.54208647 2.67350526 6.31740975 5.39471217 9.0625 8.875 C12.62826844 13.32479422 16.27266974 17.68476461 20 22 C24.29251147 26.97977103 28.49043699 32.02301116 32.6328125 37.12890625 C36.00261348 41.2160411 39.46003399 45.22625624 42.92773438 49.23046875 C43.41306641 49.7925 43.89839844 50.35453125 44.3984375 50.93359375 C45.04304932 51.6769397 45.04304932 51.6769397 45.70068359 52.43530273 C46.12945801 52.95165283 46.55823242 53.46800293 47 54 C47.54043945 54.52899902 48.08087891 55.05799805 48.63769531 55.60302734 C50.78814783 59.38674469 50.42767873 63.13980276 50.3984375 67.41796875 C50.40130768 68.34861649 50.40417786 69.27926422 50.40713501 70.2381134 C50.40917695 72.21433111 50.40363802 74.19056897 50.39111328 76.16674805 C50.37529693 79.13183429 50.39083358 82.09550755 50.41015625 85.06054688 C50.42730797 99.78082007 49.2287654 114.05202243 44.375 128.0625 C44.12339111 128.79871582 43.87178223 129.53493164 43.61254883 130.29345703 C38.99296477 143.14902875 31.5773464 154.4480127 23 165 C22.04867187 166.19882812 22.04867187 166.19882812 21.078125 167.421875 C4.08585227 187.78451587 -23.18010173 199.65713071 -49 203 C-53.57429352 203.28778589 -58.13722497 203.33373743 -62.71972656 203.35400391 C-64.03511414 203.3671463 -65.35050171 203.3802887 -66.70574951 203.39382935 C-71.01732727 203.43538141 -75.32890256 203.45655974 -79.640625 203.4765625 C-81.1350079 203.48467267 -82.62939012 203.49290691 -84.12377167 203.50126266 C-91.13751609 203.53922221 -98.15121991 203.56773311 -105.16504693 203.5844866 C-113.23177039 203.60408291 -121.29740388 203.65691187 -129.36374307 203.73748839 C-135.62478921 203.7978684 -141.88552262 203.82742815 -148.14685416 203.83404863 C-151.87649829 203.83873632 -155.60496802 203.85648028 -159.33429718 203.90697098 C-163.48951499 203.96234148 -167.64228798 203.95385534 -171.79785156 203.93994141 C-173.02193726 203.96556152 -174.24602295 203.99118164 -175.50720215 204.01757812 C-181.60514113 203.94316037 -185.16994715 203.55555472 -189.59075928 199.14828491 C-190.73681901 197.7735076 -191.87372852 196.39103491 -193 195 C-194.22682273 193.87013717 -195.47415241 192.76169595 -196.75 191.6875 C-200.23078088 188.69320621 -203.62425729 185.61158612 -207 182.5 C-210.30011301 179.46093308 -213.60949824 176.43843486 -217 173.5 C-220.87817013 170.13677362 -224.65527811 166.66664329 -228.43310547 163.19189453 C-233.25584891 158.75776372 -238.1234112 154.3748176 -243 150 C-245.50312417 147.74797293 -248.00546614 145.49507877 -250.5078125 143.2421875 C-252.14739879 141.76707382 -253.78799655 140.29308348 -255.4296875 138.8203125 C-260.53792102 134.2343265 -265.61102152 129.61278033 -270.65942383 124.96118164 C-274.1663872 121.73833536 -277.73361181 118.60033932 -281.37890625 115.53515625 C-283.172455 113.83668719 -284.57140048 112.01046072 -286 110 C-283.21562605 110.87927598 -280.47809272 111.79316556 -277.796875 112.953125 C-265.10433211 118.43957902 -252.24661894 118.30297664 -238.67163086 118.30639648 C-236.74011927 118.3140311 -234.80861068 118.3224608 -232.87710571 118.33161926 C-227.65975882 118.35344456 -222.44247049 118.36234714 -217.22508311 118.36744571 C-213.9557437 118.37110393 -210.68641929 118.37735155 -207.41708565 118.3844471 C-195.98353536 118.40890141 -184.55003017 118.42198449 -173.11645508 118.42553711 C-162.504385 118.42916775 -151.89260493 118.45903992 -141.28062338 118.50094169 C-132.13280417 118.53577959 -122.98508046 118.55108789 -113.83719546 118.55178314 C-108.39003411 118.55257145 -102.94316862 118.56110301 -97.49607658 118.58978081 C-92.36502238 118.61619352 -87.23450451 118.61803885 -82.10341263 118.60212517 C-80.23596705 118.60032889 -78.36848893 118.60683341 -76.50111198 118.62294388 C-53.90138359 118.80580101 -33.14381066 113.4624562 -16 98 C-15.31550781 97.40832031 -14.63101562 96.81664062 -13.92578125 96.20703125 C-4.18892279 87.23534831 2.01254591 75.47838575 6 63 C6.31839844 62.09507812 6.63679688 61.19015625 6.96484375 60.2578125 C12.56145125 42.049495 9.45221083 20.771681 0.953125 4.00390625 C0 2 0 2 0 0 Z " fill="#0481EA" transform="translate(462,309)"/>
<path d="M0 0 C14.30372363 11.47503449 25.32145346 25.87342052 32 43 C32 43.99 32 44.98 32 46 C30.93523437 46.21914062 29.87046875 46.43828125 28.7734375 46.6640625 C13.31454627 49.98052143 0.62049759 55.37708348 -12 65 C-12.73863281 65.55300781 -13.47726563 66.10601562 -14.23828125 66.67578125 C-30.73446138 79.99834757 -40.9844476 101.88628967 -43.29980469 122.69433594 C-43.74397725 128.1272064 -43.93287261 133.55047622 -44 139 C-44.9429895 139.05945801 -44.9429895 139.05945801 -45.9050293 139.12011719 C-68.08618142 140.58898704 -85.17811977 144.37156398 -102 160 C-103.03897239 161.30319382 -104.0555216 162.62677812 -105 164 C-117.90201111 162.33223555 -131.34459965 146.86250166 -139 137 C-154.52101858 114.6885358 -161.72456091 87.33014222 -157.3515625 60.27734375 C-152.31955126 35.01101791 -137.03356613 11.7519676 -116.0390625 -3.09375 C-79.94564254 -26.26483442 -34.62251827 -26.60745823 0 0 Z " fill="#FEC500" transform="translate(264,153)"/>
<path d="M0 0 C4.65550266 1.94293096 7.78235391 4.40702771 11.328125 7.96484375 C11.80320496 8.4394252 12.27828491 8.91400665 12.76776123 9.40296936 C13.76285308 10.40038657 14.75429113 11.40146137 15.7421875 12.40600586 C17.25102102 13.93853706 18.77284792 15.45720211 20.296875 16.97460938 C29.82994094 26.5624868 29.82994094 26.5624868 30.15234375 31.18359375 C29.76952011 35.19976174 29.27708319 37.58437521 27 41 C23.1613531 43.55909793 19.61990371 44.67515834 15 44 C9.10607355 40.41451536 4.5259327 35.86407192 -0.31494141 31.00073242 C-1.75173404 29.56076213 -3.20140703 28.13468528 -4.65234375 26.70898438 C-5.56628906 25.79568359 -6.48023437 24.88238281 -7.421875 23.94140625 C-8.25299805 23.11326416 -9.08412109 22.28512207 -9.94042969 21.43188477 C-12.93530215 17.89562059 -13.88480616 15.07514253 -14.375 10.5 C-13.93272654 6.37211433 -12.9004772 4.9004772 -10 2 C-6.25816125 -0.49455917 -4.43756964 -0.37606522 0 0 Z " fill="#FAC504" transform="translate(97,110)"/>
<path d="M0 0 C2.70552388 2.19823815 4.44778333 3.89556667 6 7 C6.56148812 12.83947647 5.43701134 15.35159207 2 20 C-0.88074063 23.22437685 -3.93507829 26.26490663 -6.99926758 29.31494141 C-8.43923787 30.75173404 -9.86531472 32.20140703 -11.29101562 33.65234375 C-12.20431641 34.56628906 -13.11761719 35.48023438 -14.05859375 36.421875 C-14.88673584 37.25299805 -15.71487793 38.08412109 -16.56811523 38.94042969 C-19.87640382 41.74222896 -22.66804473 42.82996316 -26.9375 43.375 C-30.92413253 42.88684091 -32.94134024 41.5720548 -36 39 C-38.10863429 35.35781349 -38.50962203 32.16191328 -38 28 C-35.47870283 23.79163735 -32.61264598 20.35637704 -29.15625 16.890625 C-28.23972656 15.97152344 -27.32320312 15.05242187 -26.37890625 14.10546875 C-25.90598145 13.6367334 -25.43305664 13.16799805 -24.94580078 12.68505859 C-23.49662672 11.24665178 -22.05850827 9.79780426 -20.62109375 8.34765625 C-19.70457031 7.43371094 -18.78804687 6.51976562 -17.84375 5.578125 C-17.01037109 4.74700195 -16.17699219 3.91587891 -15.31835938 3.05957031 C-10.37300041 -1.33375827 -6.29362491 -1.77253607 0 0 Z " fill="#FAC504" transform="translate(121,309)"/>
<path d="M0 0 C3.51732742 1.28517733 5.4770624 2.37247488 7.875 5.25 C9.33017877 8.80710366 9.46888682 11.18192158 9 15 C5.4791643 20.91966324 0.8526679 25.48541863 -3.99926758 30.31494141 C-5.43923787 31.75173404 -6.86531472 33.20140703 -8.29101562 34.65234375 C-9.20431641 35.56628906 -10.11761719 36.48023438 -11.05859375 37.421875 C-11.88673584 38.25299805 -12.71487793 39.08412109 -13.56811523 39.94042969 C-16.87640382 42.74222896 -19.66804473 43.82996316 -23.9375 44.375 C-27.92413253 43.88684091 -29.94134024 42.5720548 -33 40 C-35.23760086 36.49766823 -35.38430346 33.18351668 -34.72387695 29.0871582 C-33.86484115 26.61029578 -32.74227114 25.229655 -30.98046875 23.29296875 C-30.03482056 22.25281616 -30.03482056 22.25281616 -29.07006836 21.19165039 C-25.52556701 17.43896864 -21.90952015 13.76536035 -18.25 10.125 C-17.11884766 8.98804687 -17.11884766 8.98804687 -15.96484375 7.828125 C-15.23910156 7.10367188 -14.51335937 6.37921875 -13.765625 5.6328125 C-13.11368164 4.98199707 -12.46173828 4.33118164 -11.79003906 3.66064453 C-7.80497961 -0.03635143 -5.34529376 -0.452991 0 0 Z " fill="#FAC504" transform="translate(316,110)"/>
<path d="M0 0 C0.80277878 -0.0066568 1.60555756 -0.0133136 2.43266296 -0.02017212 C4.13143627 -0.03029485 5.8302493 -0.03498926 7.52905273 -0.03466797 C10.11704882 -0.03902935 12.70332263 -0.07531757 15.29101562 -0.11328125 C16.94400461 -0.11915204 18.59700166 -0.12311968 20.25 -0.125 C21.40342644 -0.14655655 21.40342644 -0.14655655 22.58015442 -0.16854858 C27.77194948 -0.12482414 30.68668654 0.93790104 34.82421875 4.3359375 C37.34352932 7.94005035 37.01004402 10.93522481 36.44140625 15.14453125 C35.48867825 18.52731866 33.53742901 20.21830998 30.82421875 22.3359375 C27.70802546 23.89403414 24.38764053 23.54087628 20.96484375 23.57421875 C20.18284607 23.5822905 19.40084839 23.59036224 18.59515381 23.59867859 C16.93748186 23.6125197 15.2797814 23.62324174 13.62207031 23.63110352 C11.09774996 23.64827741 8.57475289 23.69215615 6.05078125 23.73632812 C4.4388117 23.7464588 2.82683102 23.75497373 1.21484375 23.76171875 C0.0895224 23.78798088 0.0895224 23.78798088 -1.05853271 23.81477356 C-6.25208104 23.79348853 -9.19085858 22.63682989 -13.17578125 19.3359375 C-15.28441554 15.69375099 -15.68540328 12.49785078 -15.17578125 8.3359375 C-11.19750552 1.20247756 -7.82305731 0.02246559 0 0 Z " fill="#FCC502" transform="translate(52.17578125,218.6640625)"/>
<path d="M0 0 C4.18650222 1.61019316 6.78574155 3.08209701 9 7 C9.2927631 9.76302078 9.42085126 12.29392924 9.3984375 15.0546875 C9.40130768 15.83385529 9.40417786 16.61302307 9.40713501 17.415802 C9.40917308 19.06155119 9.40366116 20.70732473 9.39111328 22.35302734 C9.37509835 24.85960744 9.39094724 27.36456461 9.41015625 29.87109375 C9.40817292 31.47396187 9.4043274 33.07682898 9.3984375 34.6796875 C9.40754654 35.79559769 9.40754654 35.79559769 9.4168396 36.93405151 C9.35329636 41.68734277 8.55431221 44.98154787 6 49 C1.98387205 51.67741863 -1.20274224 52.69960009 -6 52 C-9.2259495 50.32498776 -11.40388088 49.10472987 -13.15087891 45.8671875 C-14.24545705 42.17117665 -14.32453714 38.6335297 -14.3359375 34.8125 C-14.3459227 33.64231323 -14.3459227 33.64231323 -14.35610962 32.44848633 C-14.36620231 30.80454862 -14.37092769 29.16057022 -14.37060547 27.51660156 C-14.37498642 25.00777694 -14.41135994 22.50070219 -14.44921875 19.9921875 C-14.45508621 18.39063098 -14.45905608 16.78906616 -14.4609375 15.1875 C-14.47530853 14.44153564 -14.48967957 13.69557129 -14.50448608 12.92700195 C-14.47274997 9.29485329 -14.12929106 7.20269656 -12.15869141 4.11328125 C-8.06919967 0.10981592 -5.64754433 -0.47860545 0 0 Z " fill="#FCC502" transform="translate(206,64)"/>
</svg>
